<?xml version="1.0" encoding="UTF-8" standalone="no"?>
<!-- Created with Inkscape (http://www.inkscape.org/) -->

<svg
   width="21.695999mm"
   height="7.6729002mm"
   version="1.1"
   viewBox="0 0 21.695999 7.6729002"
   id="svg17"
   sodipodi:docname="drawing.svg"
   inkscape:version="1.1.1 (3bf5ae0d25, 2021-09-20)"
   xmlns:inkscape="http://www.inkscape.org/namespaces/inkscape"
   xmlns:sodipodi="http://sodipodi.sourceforge.net/DTD/sodipodi-0.dtd"
   xmlns="http://www.w3.org/2000/svg"
   xmlns:svg="http://www.w3.org/2000/svg">
  <defs
     id="defs21" />
  <sodipodi:namedview
     id="namedview19"
     pagecolor="#505050"
     bordercolor="#eeeeee"
     borderopacity="1"
     inkscape:pageshadow="0"
     inkscape:pageopacity="0"
     inkscape:pagecheckerboard="0"
     inkscape:document-units="mm"
     showgrid="false"
     fit-margin-top="0"
     fit-margin-left="0"
     fit-margin-right="0"
     fit-margin-bottom="0"
     inkscape:zoom="5.9794052"
     inkscape:cx="25.336968"
     inkscape:cy="20.403367"
     inkscape:window-width="1920"
     inkscape:window-height="1043"
     inkscape:window-x="0"
     inkscape:window-y="1080"
     inkscape:window-maximized="0"
     inkscape:current-layer="svg17" />
  <g
     transform="translate(-27.566999,-16.778)"
     id="g13">
    <rect
       id="back"
       x="27.566999"
       y="16.778"
       width="21.695999"
       height="7.6729002"
       rx="1.0583"
       fill="#ff5f5f"
       stroke-width="0.26458" />
    <text
       x="40.694553"
       y="21.978653"
       fill="#1a171b"
       font-family="'Helvetica Neue', Helvetica, Arial, sans-serif"
       font-size="3.7042px"
       font-weight="700"
       stroke-width="0.26458"
       text-anchor="middle"
       id="text5"><tspan
         fill="#ffffff"
         font-family="Inter"
         font-weight="bold"
         id="tspan3">Donate</tspan></text>
    <g
       transform="matrix(0.08287,0,0,0.08287,28.9,18.31)"
       fill="#ffffff"
       id="g11">
      <path
         class="st0"
         d="m 23.959,10.6 c -9.6,0 -17.4,7.8 -17.4,17.4 0,9.6 7.8,17.4 17.4,17.4 9.6,0 17.4,-7.8 17.4,-17.4 0,-9.6 -7.8,-17.4 -17.4,-17.4 z m 0.3,27.2 -0.5,0.2 -0.4,-0.2 c -0.4,-0.2 -9.8,-5.4 -9.8,-11.3 0,-3.8 2.5,-6.8 5.8,-6.8 1.6,0 3.1,0.7 4.5,2.1 1.3,-1.4 2.9,-2.1 4.5,-2.1 3.2,0 5.8,3 5.8,6.9 -0.1,5.8 -9.5,11 -9.9,11.2 z"
         id="path7" />
      <path
         class="st0"
         d="m 56.759,28.5 c 0,-2.6 -2,-3 -3.4,-3.1 h -5.5 c -0.8,-8.4 -6,-15.7 -14.5,-19.4 -10.7,-4.6 -23.3,-0.7 -29.6,9.1 -7.7,12.1 -3.1,27.9 9.5,34.2 10.3,5.1 23.1,2 29.9,-7.3 2.5,-3.4 3.8,-6.9 4.3,-10.7 h 6.3 c 1.5,0 3,-0.5 3,-2.8 z m -40.8,17.7 c -11.3,-5 -15.4,-18.8 -8.7,-29.1 5.2,-8.2 15.8,-11.3 24.7,-7.4 11.3,5 15.4,18.8 8.7,29.1 -5.3,8.1 -15.9,11.3 -24.7,7.4 z"
         id="path9" />
    </g>
  </g>
  <style
     type="text/css"
     id="style15">.st0{fill:#FFFFFF;}</style>
</svg>
